<svg width="1023" height="814" viewBox="0 0 1023 814" fill="none" xmlns="http://www.w3.org/2000/svg">
<g id="Education_Blue 2" clip-path="url(#clip0)">
<path id="Vector" opacity="0.1" d="M599.86 137.42C535.14 135.17 473.49 114.28 414.63 91.42C355.77 68.56 297.47 43.23 234.3 31.12C193.67 23.33 147.2 22.23 114.47 44.01C82.96 65.01 72.78 101.16 67.31 134.74C63.19 160 60.77 186.58 72.06 210.23C79.89 226.65 93.8 240.45 103.41 256.23C136.88 310.95 113.23 378.43 76.96 431.86C59.96 456.93 40.21 480.86 27.09 507.52C13.97 534.18 7.88999 564.77 19.37 591.99C30.76 618.99 57.89 639.23 87.27 653.48C146.96 682.43 217.27 690.71 285.88 695.4C437.71 705.79 590.34 701.29 742.57 696.79C798.91 695.12 855.49 693.43 910.91 684.72C941.69 679.88 973.46 672.21 995.81 653.67C1024.17 630.14 1031.2 590.29 1012.2 560.79C980.31 511.3 892.2 499.01 869.88 445.89C857.62 416.66 870.22 384.1 888.04 356.98C926.28 298.82 990.37 247.79 993.75 181.31C996.07 135.64 965.25 89.92 917.61 68.31C867.68 45.58 798.42 48.46 761.6 85.95C723.66 124.58 657 139.4 599.86 137.42Z" fill="#70AD47"/>
<path id="Vector_2" d="M533.45 690.5L191.17 688.83L157.16 609.06L277.42 600.33L256.46 512.87L494.32 482.04L266.55 402.86L286.67 398.08L652.92 457.83L632.75 594.32L603.92 669.33L533.45 690.5Z" fill="#70AD47"/>
<g id="Flower Group #2">
<path id="Vector_3" d="M925.04 655.26C925.04 655.26 904.04 651.9 891.44 666.74C891.44 666.74 900.68 674.02 920.56 663.94L925.04 655.26Z" fill="#70AD47"/>
<path id="Vector_4" d="M927.24 654.93C927.24 654.93 940.64 671.42 934.04 689.78C934.04 689.78 923.12 685.41 921.93 663.15L927.24 654.93Z" fill="#70AD47"/>
<path id="Vector_5" d="M939.28 627.82C939.28 627.82 930.88 612.41 897.28 633.98C897.28 633.98 901.76 644.34 916.6 643.5C931.44 642.66 935.36 635.94 939.28 627.82Z" fill="#70AD47"/>
<path id="Vector_6" d="M941.45 626.71C941.45 626.71 958.88 624.71 960.57 664.61C960.57 664.61 949.52 666.9 941.67 654.28C933.82 641.66 937.04 634.58 941.45 626.71Z" fill="#70AD47"/>
<path id="Vector_7" d="M951.6 594.88C951.6 594.88 941.8 567.72 906.24 587.04C906.24 587.04 914.36 611.96 947.96 604.12L951.6 594.88Z" fill="#70AD47"/>
<path id="Vector_8" d="M962.52 554.28C962.52 554.28 944.04 526.84 911.28 552.28C911.28 552.28 922.76 578.04 959.72 564.04L962.52 554.28Z" fill="#70AD47"/>
<path id="Vector_9" d="M966.44 515.64C966.44 515.64 944.88 490.43 912.44 515.64C912.44 515.64 932.88 537.76 966.44 522.08V515.64Z" fill="#70AD47"/>
<path id="Vector_10" d="M969.8 478.11C969.8 478.11 947.96 451.79 916.88 476.71C916.88 476.71 941.52 499.95 969.8 484.27V478.11Z" fill="#70AD47"/>
<path id="Vector_11" d="M967.84 444.79C967.84 444.79 944.84 410.91 915.76 433.87C915.76 433.87 940.4 462.99 967.84 451.23V444.79Z" fill="#70AD47"/>
<path id="Vector_12" d="M962.52 405.87C962.52 405.87 938.16 372.27 909.88 398.03C909.88 398.03 938.72 427.15 962.52 412.03V405.87Z" fill="#70AD47"/>
<path id="Vector_13" d="M954.4 371.08C954.4 371.08 925.56 339.5 900.4 352.08C900.4 352.08 930.45 385.62 955.66 379.46L954.4 371.08Z" fill="#70AD47"/>
<path id="Vector_14" d="M944.32 338.1C944.32 338.1 911.04 299.42 891.68 312.34C891.68 312.34 916.2 342.34 946.68 345.34L944.32 338.1Z" fill="#70AD47"/>
<path id="Vector_15" d="M929.77 299.85C929.77 299.85 900.64 268.27 879.36 276.11C879.36 276.11 904.28 308.87 933.68 309.71L929.77 299.85Z" fill="#70AD47"/>
<path id="Vector_16" d="M916.6 264.07C916.6 264.07 884.4 233.83 870.4 239.15C870.4 239.15 893.64 272.75 918 270.79L916.6 264.07Z" fill="#70AD47"/>
<path id="Vector_17" d="M903.72 231.03C903.72 231.03 876 194.9 860.87 197.7C860.87 197.7 877.68 229.91 903.72 234.7V231.03Z" fill="#70AD47"/>
<path id="Vector_18" d="M889.74 186.48C889.74 186.48 865.24 158.79 852 158.85C852 158.85 871.34 195.85 890.75 195.51L889.74 186.48Z" fill="#70AD47"/>
<path id="Vector_19" d="M881.46 156.82L857.79 99.14C857.79 99.14 856.61 151.28 884.47 167.52L881.46 156.82Z" fill="#70AD47"/>
<path id="Vector_20" d="M871.85 93.21C871.85 93.21 867.93 45.04 870.45 41.12C870.45 41.12 853.53 81.17 872.01 114.49L871.85 93.21Z" fill="#70AD47"/>
<path id="Vector_21" d="M952.52 594.24C952.52 594.24 977.06 579.03 992.95 616.24C992.95 616.24 971.11 630.74 949.63 603.73L952.52 594.24Z" fill="#70AD47"/>
<path id="Vector_22" d="M963.31 552.73C963.31 552.73 993.41 539 1008.01 577.85C1008.01 577.85 984.76 593.85 960.57 562.55L963.31 552.73Z" fill="#70AD47"/>
<path id="Vector_23" d="M967.84 517.95C967.84 517.95 989.4 492.74 1021.84 517.95C1021.84 517.95 1001.4 540.07 967.84 524.39V517.95Z" fill="#70AD47"/>
<path id="Vector_24" d="M970.54 478.11C970.54 478.11 992.38 451.79 1023.46 476.71C1023.46 476.71 998.82 499.95 970.54 484.27V478.11Z" fill="#70AD47"/>
<path id="Vector_25" d="M967.84 445.75C967.84 445.75 983.16 407.8 1016.46 424.12C1016.46 424.12 998.46 457.77 969.2 452.05L967.84 445.75Z" fill="#70AD47"/>
<path id="Vector_26" d="M960.59 405.68C960.59 405.68 975.82 367.07 1009.59 384.97C1009.59 384.97 988.91 420.36 962.09 411.64L960.59 405.68Z" fill="#70AD47"/>
<path id="Vector_27" d="M951.15 371.27C951.15 371.27 957.15 328.94 985.15 325.15C985.15 325.15 979.21 369.79 954.92 378.9L951.15 371.27Z" fill="#70AD47"/>
<path id="Vector_28" d="M943.61 338.18C943.61 338.18 945.95 287.18 969.1 285.4C969.1 285.4 968.32 324.11 946.22 345.4L943.61 338.18Z" fill="#70AD47"/>
<path id="Vector_29" d="M927.37 298.42C927.37 298.42 934.27 256.01 956.37 250.83C956.37 250.83 953.63 291.9 929.56 308.83L927.37 298.42Z" fill="#70AD47"/>
<path id="Vector_30" d="M913.98 264.42C913.98 264.42 914.21 220.24 927.71 213.75C927.71 213.75 936.08 253.75 917.89 270.06L913.98 264.42Z" fill="#70AD47"/>
<path id="Vector_31" d="M902.69 230.53C902.69 230.53 904.58 185.04 918.56 178.63C918.56 178.63 923.34 214.63 904.78 233.51L902.69 230.53Z" fill="#70AD47"/>
<path id="Vector_32" d="M887.79 190.11C887.79 190.11 887.87 153.11 897.85 144.43C897.85 144.43 907.77 184.96 893 197.55L887.79 190.11Z" fill="#70AD47"/>
<path id="Vector_33" d="M882.63 155L892.34 93.42C892.34 93.42 905.53 143.88 882.17 166.12L882.63 155Z" fill="#70AD47"/>
<path id="Vector_34" d="M880.74 93.79C880.74 93.79 905.66 52.39 905.15 47.79C905.15 47.79 902.5 91.18 871.15 112.79L880.74 93.79Z" fill="#70AD47"/>
<path id="Vector_35" d="M877.82 81.56C877.82 81.56 901.34 22.76 911.98 18C911.98 18 878.38 35.08 875.86 79.88L877.82 81.56Z" fill="#70AD47"/>
<path id="Vector_36" d="M890.87 195.86L892.48 195.37C872.63 130.64 867.68 89.37 878.53 79.02L877.38 77.8C865.87 88.72 870.54 129.54 890.87 195.86Z" fill="#444053"/>
<path id="Vector_37" d="M945.53 347.42L947.91 346.57C945.8 340.64 943.53 334.62 941.15 328.69C920.43 277.05 902.79 229.01 891.48 192.13L889.41 191.13C900.74 228.08 918.07 277.96 938.81 329.67C941.18 335.49 943.44 341.48 945.53 347.42Z" fill="#444053"/>
<path id="Vector_38" d="M895.45 703.7C895.77 703.35 927.94 667.12 950.37 605.27C963.513 569.059 970.827 530.993 972.04 492.49C973.58 444.36 963.48 390.62 946.18 341.8L944.3 344C983.14 453.57 967.71 547.46 947.24 604C925.05 665.29 893.24 701.12 892.93 701.48L895.45 703.7Z" fill="#444053"/>
</g>
<g id="Flower Group #1">
<path id="Vector_39" d="M98.42 655.42C98.42 655.42 119.42 652.06 132.02 666.9C132.02 666.9 122.78 674.18 102.9 664.1L98.42 655.42Z" fill="#70AD47"/>
<path id="Vector_40" d="M96.22 655.09C96.22 655.09 82.82 671.58 89.42 689.94C89.42 689.94 100.34 685.57 101.53 663.31L96.22 655.09Z" fill="#70AD47"/>
<path id="Vector_41" d="M84.18 627.98C84.18 627.98 92.58 612.57 126.18 634.14C126.18 634.14 121.7 644.5 106.86 643.66C92.02 642.82 88.1 636.1 84.18 627.98Z" fill="#70AD47"/>
<path id="Vector_42" d="M82.01 626.87C82.01 626.87 64.58 624.87 62.89 664.77C62.89 664.77 73.94 667.06 81.79 654.44C89.64 641.82 86.42 634.74 82.01 626.87Z" fill="#70AD47"/>
<path id="Vector_43" d="M71.86 595.04C71.86 595.04 81.66 567.88 117.22 587.2C117.22 587.2 109.1 612.12 75.5 604.28L71.86 595.04Z" fill="#70AD47"/>
<path id="Vector_44" d="M60.94 554.44C60.94 554.44 79.42 527 112.18 552.44C112.18 552.44 100.7 578.2 63.74 564.2L60.94 554.44Z" fill="#70AD47"/>
<path id="Vector_45" d="M57.02 515.8C57.02 515.8 78.58 490.59 111.02 515.8C111.02 515.8 90.58 537.92 57.02 522.24V515.8Z" fill="#70AD47"/>
<path id="Vector_46" d="M53.66 478.27C53.66 478.27 75.5 451.95 106.58 476.87C106.58 476.87 81.94 500.11 53.66 484.43V478.27Z" fill="#70AD47"/>
<path id="Vector_47" d="M55.62 444.95C55.62 444.95 78.62 411.07 107.7 434.03C107.7 434.03 83.06 463.15 55.62 451.39V444.95Z" fill="#70AD47"/>
<path id="Vector_48" d="M60.94 406.03C60.94 406.03 85.3 372.43 113.58 398.19C113.58 398.19 84.74 427.31 60.94 412.19V406.03Z" fill="#70AD47"/>
<path id="Vector_49" d="M69.06 371.24C69.06 371.24 97.9 339.66 123.06 352.24C123.06 352.24 93.01 385.78 67.8 379.62L69.06 371.24Z" fill="#70AD47"/>
<path id="Vector_50" d="M79.14 338.26C79.14 338.26 112.42 299.58 131.78 312.5C131.78 312.5 107.26 342.5 76.78 345.5L79.14 338.26Z" fill="#70AD47"/>
<path id="Vector_51" d="M93.69 300.01C93.69 300.01 122.82 268.43 144.1 276.27C144.1 276.27 119.18 309.03 89.78 309.87L93.69 300.01Z" fill="#70AD47"/>
<path id="Vector_52" d="M106.86 264.23C106.86 264.23 139.06 233.99 153.06 239.31C153.06 239.31 129.82 272.91 105.46 270.95L106.86 264.23Z" fill="#70AD47"/>
<path id="Vector_53" d="M119.74 231.19C119.74 231.19 147.46 195.06 162.59 197.86C162.59 197.86 145.78 230.07 119.74 234.86V231.19Z" fill="#70AD47"/>
<path id="Vector_54" d="M133.72 186.64C133.72 186.64 158.22 158.95 171.46 159.01C171.46 159.01 152.12 196.01 132.71 195.67L133.72 186.64Z" fill="#70AD47"/>
<path id="Vector_55" d="M142 156.98L165.67 99.3C165.67 99.3 166.85 151.44 138.99 167.68L142 156.98Z" fill="#70AD47"/>
<path id="Vector_56" d="M151.61 93.37C151.61 93.37 155.53 45.2 153.01 41.28C153.01 41.28 169.93 81.33 151.45 114.65L151.61 93.37Z" fill="#70AD47"/>
<path id="Vector_57" d="M70.94 594.4C70.94 594.4 46.4 579.19 30.51 616.4C30.51 616.4 52.35 630.9 73.83 603.89L70.94 594.4Z" fill="#70AD47"/>
<path id="Vector_58" d="M60.15 552.89C60.15 552.89 30.05 539.16 15.45 578.01C15.45 578.01 38.7 594.01 62.89 562.71L60.15 552.89Z" fill="#70AD47"/>
<path id="Vector_59" d="M55.62 518.11C55.62 518.11 34.06 492.9 1.62 518.11C1.62 518.11 22.06 540.23 55.62 524.55V518.11Z" fill="#70AD47"/>
<path id="Vector_60" d="M52.92 478.27C52.92 478.27 31.08 451.95 0 476.87C0 476.87 24.64 500.11 52.92 484.43V478.27Z" fill="#70AD47"/>
<path id="Vector_61" d="M55.62 445.91C55.62 445.91 40.3 407.96 7 424.28C7 424.28 25 457.93 54.26 452.21L55.62 445.91Z" fill="#70AD47"/>
<path id="Vector_62" d="M62.87 405.84C62.87 405.84 47.64 367.23 13.87 385.13C13.87 385.13 34.55 420.52 61.37 411.8L62.87 405.84Z" fill="#70AD47"/>
<path id="Vector_63" d="M72.31 371.43C72.31 371.43 66.31 329.1 38.31 325.31C38.31 325.31 44.25 369.95 68.54 379.06L72.31 371.43Z" fill="#70AD47"/>
<path id="Vector_64" d="M79.85 338.34C79.85 338.34 77.51 287.34 54.36 285.56C54.36 285.56 55.14 324.27 77.24 345.56L79.85 338.34Z" fill="#70AD47"/>
<path id="Vector_65" d="M96.09 298.58C96.09 298.58 89.19 256.17 67.09 250.99C67.09 250.99 69.83 292.06 93.9 308.99L96.09 298.58Z" fill="#70AD47"/>
<path id="Vector_66" d="M109.48 264.58C109.48 264.58 109.25 220.4 95.75 213.91C95.75 213.91 87.38 253.91 105.57 270.22L109.48 264.58Z" fill="#70AD47"/>
<path id="Vector_67" d="M120.77 230.69C120.77 230.69 118.88 185.2 104.9 178.79C104.9 178.79 100.12 214.79 118.68 233.67L120.77 230.69Z" fill="#70AD47"/>
<path id="Vector_68" d="M135.67 190.27C135.67 190.27 135.59 153.27 125.61 144.59C125.61 144.59 115.69 185.12 130.46 197.71L135.67 190.27Z" fill="#70AD47"/>
<path id="Vector_69" d="M140.83 155.16L131.12 93.58C131.12 93.58 117.93 144.04 141.29 166.28L140.83 155.16Z" fill="#70AD47"/>
<path id="Vector_70" d="M142.72 93.95C142.72 93.95 117.8 52.55 118.31 47.95C118.31 47.95 120.96 91.34 152.31 112.95L142.72 93.95Z" fill="#70AD47"/>
<path id="Vector_71" d="M145.64 81.72C145.64 81.72 122.12 22.92 111.48 18.16C111.48 18.16 145.08 35.24 147.6 80.04L145.64 81.72Z" fill="#70AD47"/>
<path id="Vector_72" d="M132.59 196.02L130.98 195.53C150.83 130.8 155.78 89.53 144.93 79.18L146.08 77.96C157.59 88.88 152.92 129.7 132.59 196.02Z" fill="#444053"/>
<path id="Vector_73" d="M77.93 347.58L75.55 346.73C77.66 340.8 79.93 334.78 82.31 328.85C103.03 277.21 120.67 229.17 131.98 192.29L134.05 191.29C122.72 228.24 105.39 278.12 84.65 329.83C82.28 335.65 80.02 341.64 77.93 347.58Z" fill="#444053"/>
<path id="Vector_74" d="M128.01 703.86C127.69 703.51 95.52 667.28 73.09 605.43C59.9473 569.219 52.6331 531.153 51.42 492.65C49.88 444.52 59.98 390.78 77.28 341.96L79.16 344.16C40.32 453.73 55.75 547.62 76.22 604.16C98.41 665.45 130.22 701.28 130.53 701.64L128.01 703.86Z" fill="#444053"/>
</g>
<path id="Vector_75" d="M728.73 626.94C728.73 626.94 706.06 654.61 724.06 696.44L543.06 774.94L525.69 778.58L517.69 743.58L523.04 699.41V675.27L728.73 626.94Z" fill="#D5D6DB"/>
<path id="Vector_76" d="M157.16 609.06L407.68 563.39L739.63 616.27L533.45 690.5L157.16 609.06Z" fill="#70AD47"/>
<path id="Vector_77" d="M157.16 609.06L407.68 563.39L739.63 616.27L533.45 690.5L157.16 609.06Z" fill="#70AD47"/>
<path id="Vector_78" d="M157.16 609.05C157.16 609.05 133.73 653.44 160.73 694.44L532.23 774.94C532.23 774.94 509.17 739.58 533.42 690.5L157.16 609.05Z" fill="#70AD47"/>
<path id="Vector_79" opacity="0.1" d="M157.16 609.05C157.16 609.05 133.73 653.44 160.73 694.44L532.23 774.94C532.23 774.94 509.17 739.58 533.42 690.5L157.16 609.05Z" fill="black"/>
<path id="Vector_80" opacity="0.1" d="M168.23 624.44C168.23 624.44 154.84 656.92 168.23 677.94Z" fill="black"/>
<path id="Vector_81" d="M532.23 774.94L739.63 686.44C739.63 686.44 751.23 688.94 743.73 697.44C736.23 705.94 536.23 783.44 536.23 783.44L160.73 694.44L532.23 774.94Z" fill="#70AD47"/>
<path id="Vector_82" opacity="0.1" d="M532.23 774.94L739.63 686.44C739.63 686.44 751.23 688.94 743.73 697.44C736.23 705.94 536.23 783.44 536.23 783.44L160.73 694.44L532.23 774.94Z" fill="black"/>
<path id="Vector_83" opacity="0.1" d="M515.23 699.44C515.23 699.44 495.23 723.44 515.23 759.44Z" fill="black"/>
<path id="Vector_84" opacity="0.1" d="M612.057 699.034L522.348 728.963L522.665 729.912L612.374 699.983L612.057 699.034Z" fill="black"/>
<path id="Vector_85" opacity="0.1" d="M630.026 696.056L522.32 737.012L522.675 737.947L630.381 696.991L630.026 696.056Z" fill="black"/>
<path id="Vector_86" opacity="0.1" d="M646.527 695.912L522.921 746.506L523.3 747.432L646.906 696.838L646.527 695.912Z" fill="black"/>
<path id="Vector_87" opacity="0.1" d="M664.472 691.58L524.364 754.87L524.775 755.782L664.883 692.491L664.472 691.58Z" fill="black"/>
<path id="Vector_88" opacity="0.1" d="M679.547 691.601L525.473 758.946L525.873 759.862L679.948 692.517L679.547 691.601Z" fill="black"/>
<path id="Vector_89" opacity="0.1" d="M712.522 686L527.796 765.786L528.193 766.704L712.919 686.918L712.522 686Z" fill="black"/>
<path id="Vector_90" opacity="0.3" d="M250.23 613.94L426.23 576.94L533.45 597.44L389.23 643.94L250.23 613.94Z" fill="white"/>
<path id="Vector_91" d="M739.63 616.27C739.63 616.27 748.73 619.94 743.39 625.61C738.05 631.28 533.42 690.5 533.42 690.5L739.63 616.27Z" fill="#70AD47"/>
<path id="Vector_92" d="M828.02 530.76C828.02 530.76 805.36 558.42 823.36 600.26L642.36 678.76L624.99 682.42L616.99 647.42L622.42 603.26V579.09L828.02 530.76Z" fill="#D5D6DB"/>
<path id="Vector_93" d="M256.46 512.87L506.97 467.21L838.93 520.09L632.75 594.32L256.46 512.87Z" fill="#3A3768"/>
<path id="Vector_94" d="M256.42 512.87C256.42 512.87 232.98 557.26 259.98 598.26L631.48 678.76C631.48 678.76 608.43 643.37 632.71 594.31L256.42 512.87Z" fill="#3A3768"/>
<path id="Vector_95" opacity="0.1" d="M256.42 512.87C256.42 512.87 232.98 557.26 259.98 598.26L631.48 678.76C631.48 678.76 608.43 643.37 632.71 594.31L515.23 568.88L256.42 512.87Z" fill="black"/>
<path id="Vector_96" opacity="0.1" d="M267.52 528.26C267.52 528.26 254.14 560.73 267.52 581.76Z" fill="black"/>
<path id="Vector_97" d="M631.52 678.76L838.93 590.26C838.93 590.26 850.52 592.76 843.02 601.26C835.52 609.76 635.52 687.26 635.52 687.26L260.02 598.26L631.52 678.76Z" fill="#3A3768"/>
<path id="Vector_98" opacity="0.1" d="M631.52 678.76L838.93 590.26C838.93 590.26 850.52 592.76 843.02 601.26C835.52 609.76 635.52 687.26 635.52 687.26L260.02 598.26L631.52 678.76Z" fill="black"/>
<path id="Vector_99" opacity="0.1" d="M614.52 603.26C614.52 603.26 594.52 627.26 614.52 663.26Z" fill="black"/>
<path id="Vector_100" opacity="0.1" d="M711.355 602.865L621.646 632.794L621.962 633.743L711.671 603.813L711.355 602.865Z" fill="black"/>
<path id="Vector_101" opacity="0.1" d="M729.336 599.882L621.63 640.838L621.986 641.773L729.691 600.816L729.336 599.882Z" fill="black"/>
<path id="Vector_102" opacity="0.1" d="M745.823 599.724L622.216 650.318L622.595 651.244L746.202 600.65L745.823 599.724Z" fill="black"/>
<path id="Vector_103" opacity="0.1" d="M763.779 595.394L623.671 658.685L624.083 659.596L764.191 596.305L763.779 595.394Z" fill="black"/>
<path id="Vector_104" opacity="0.1" d="M778.84 595.402L624.766 662.747L625.166 663.664L779.241 596.318L778.84 595.402Z" fill="black"/>
<path id="Vector_105" opacity="0.1" d="M811.823 589.802L627.097 669.587L627.493 670.505L812.219 590.72L811.823 589.802Z" fill="black"/>
<path id="Vector_106" opacity="0.45" d="M349.53 517.76L525.53 480.76L632.75 501.26L488.53 547.76L349.53 517.76Z" fill="white"/>
<path id="Vector_107" d="M838.93 520.09C838.93 520.09 848.02 523.76 842.69 529.42C837.36 535.08 632.75 594.31 632.75 594.31L838.93 520.09Z" fill="#3A3768"/>
<path id="Vector_108" d="M837.42 420.73C837.42 420.73 814.75 470.4 832.75 512.23L651.75 568.73L634.42 572.4L626.42 537.4L631.77 493.23V469.06L837.42 420.73Z" fill="#D5D6DB"/>
<path id="Vector_109" d="M265.89 402.85L516.41 357.18L848.37 410.06L642.18 484.29L265.89 402.85Z" fill="#70AD47"/>
<path id="Vector_110" d="M265.89 402.84C265.89 402.84 242.42 447.23 269.42 488.23L640.92 568.73C640.92 568.73 617.86 533.34 642.14 484.29L265.89 402.84Z" fill="#70AD47"/>
<path id="Vector_111" opacity="0.1" d="M265.89 402.84C265.89 402.84 242.42 447.23 269.42 488.23L640.92 568.73C640.92 568.73 617.86 533.34 642.14 484.29L265.89 402.84Z" fill="black"/>
<path id="Vector_112" opacity="0.1" d="M276.96 418.23C276.96 418.23 263.57 450.71 276.96 471.73Z" fill="black"/>
<path id="Vector_113" d="M640.96 568.73L848.36 502.23C848.36 502.23 859.96 504.73 852.46 513.23C844.96 521.73 644.96 577.23 644.96 577.23L269.46 488.23L640.96 568.73Z" fill="#70AD47"/>
<path id="Vector_114" opacity="0.1" d="M640.96 568.73L848.36 502.23C848.36 502.23 859.96 504.73 852.46 513.23C844.96 521.73 644.96 577.23 644.96 577.23L269.46 488.23L640.96 568.73Z" fill="black"/>
<path id="Vector_115" opacity="0.1" d="M623.96 493.23C623.96 493.23 603.96 517.23 623.96 553.23Z" fill="black"/>
<path id="Vector_116" opacity="0.1" d="M720.798 492.833L631.089 522.762L631.405 523.711L721.114 493.781L720.798 492.833Z" fill="black"/>
<path id="Vector_117" opacity="0.1" d="M738.772 489.855L631.066 530.811L631.421 531.746L739.127 490.79L738.772 489.855Z" fill="black"/>
<path id="Vector_118" opacity="0.1" d="M755.25 489.702L631.643 540.296L632.022 541.222L755.628 490.628L755.25 489.702Z" fill="black"/>
<path id="Vector_119" opacity="0.1" d="M773.22 485.363L633.111 548.654L633.523 549.565L773.631 486.274L773.22 485.363Z" fill="black"/>
<path id="Vector_120" opacity="0.1" d="M788.286 485.381L634.211 552.726L634.612 553.642L788.687 486.297L788.286 485.381Z" fill="black"/>
<path id="Vector_121" opacity="0.1" d="M821.265 479.787L636.539 559.572L636.936 560.49L821.662 480.705L821.265 479.787Z" fill="black"/>
<path id="Vector_122" opacity="0.3" d="M358.96 407.73L534.96 370.73L642.18 391.23L497.96 437.73L358.96 407.73Z" fill="white"/>
<path id="Vector_123" d="M848.36 410.06C848.36 410.06 857.46 413.73 852.12 419.4C846.78 425.07 642.18 484.29 642.18 484.29L848.36 410.06Z" fill="#70AD47"/>
<path id="Vector_124" d="M408.42 106.5C408.42 106.5 370.42 104.21 374.86 130.87C374.86 130.87 373.97 135.58 378.24 137.72C378.24 137.72 378.31 135.72 382.14 136.41C383.507 136.645 384.897 136.712 386.28 136.61C388.144 136.482 389.917 135.752 391.33 134.53V134.53C391.33 134.53 402.02 130.11 406.18 112.63C406.18 112.63 409.26 108.82 409.18 107.84L402.74 110.58C402.74 110.58 404.93 115.21 403.21 119.06C403.21 119.06 403 110.75 401.76 110.94C401.51 110.94 398.43 112.55 398.43 112.55C398.43 112.55 402.2 120.62 399.35 126.48C399.35 126.48 400.43 116.54 397.25 113.13L392.73 115.77C392.73 115.77 397.14 124.1 394.15 130.9C394.15 130.9 394.92 120.47 391.78 116.41L387.68 119.61C387.68 119.61 391.83 127.82 389.3 133.46C389.3 133.46 388.97 121.32 386.8 120.4C386.8 120.4 383.21 123.56 382.67 124.86C382.67 124.86 385.51 130.86 383.74 133.97C383.74 133.97 382.67 125.88 381.74 125.84C381.74 125.84 378.17 131.2 377.8 134.84C377.973 131.447 379.031 128.157 380.87 125.3C378.812 125.689 376.914 126.673 375.41 128.13C375.41 128.13 375.96 124.34 381.76 124.01C381.76 124.01 384.71 119.94 385.5 119.7C385.5 119.7 379.73 119.21 376.24 120.76C376.24 120.76 379.32 117.19 386.55 118.76L390.55 115.46C390.55 115.46 382.97 114.46 379.75 115.57C379.75 115.57 383.46 112.41 391.64 114.71L396.05 112.08C396.05 112.08 389.58 110.69 385.73 111.19C385.73 111.19 389.79 109 397.34 111.37L400.48 109.96C400.48 109.96 395.75 109.03 394.36 108.88C392.97 108.73 392.9 108.35 392.9 108.35C395.902 107.857 398.982 108.203 401.8 109.35C401.8 109.35 408.55 106.92 408.42 106.5Z" fill="#70AD47"/>
<path id="Vector_125" opacity="0.1" d="M943.02 216.08C943.02 216.08 905.02 213.79 909.46 240.45C909.46 240.45 908.57 245.16 912.84 247.3C912.84 247.3 912.91 245.3 916.74 245.99C918.107 246.219 919.497 246.286 920.88 246.19C922.727 246.054 924.481 245.324 925.88 244.11V244.11C925.88 244.11 936.58 239.69 940.73 222.21C940.73 222.21 943.81 218.4 943.73 217.42L937.31 220.16C937.31 220.16 939.5 224.79 937.78 228.64C937.78 228.64 937.57 220.33 936.34 220.52C936.09 220.52 933 222.13 933 222.13C933 222.13 936.77 230.2 933.93 236.06C933.93 236.06 935.01 226.12 931.82 222.71L927.3 225.35C927.3 225.35 931.71 233.68 928.72 240.48C928.72 240.48 929.49 230.05 926.35 225.99L922.26 229.19C922.26 229.19 926.4 237.4 923.87 243.04C923.87 243.04 923.54 230.9 921.37 229.98C921.37 229.98 917.79 233.14 917.24 234.44C917.24 234.44 920.08 240.44 918.32 243.55C918.32 243.55 917.24 235.46 916.32 235.42C916.32 235.42 912.75 240.78 912.38 244.42C912.553 241.025 913.615 237.735 915.46 234.88C913.4 235.27 911.499 236.254 909.99 237.71C909.99 237.71 910.55 233.92 916.34 233.59C916.34 233.59 919.29 229.52 920.08 229.27C920.08 229.27 914.32 228.79 910.82 230.34C910.82 230.34 913.9 226.77 921.13 228.34L925.13 225.04C925.13 225.04 917.54 224.04 914.33 225.15C914.33 225.15 918.03 221.99 926.22 224.29L930.62 221.66C930.62 221.66 924.15 220.27 920.3 220.77C920.3 220.77 924.36 218.58 931.91 220.95L935.06 219.54C935.06 219.54 930.32 218.61 928.93 218.46C927.54 218.31 927.47 217.93 927.47 217.93C930.472 217.431 933.554 217.777 936.37 218.93C936.37 218.93 943.14 216.5 943.02 216.08Z" fill="#70AD47"/>
<path id="Vector_126" opacity="0.1" d="M472.42 271.2C472.42 271.2 455.86 236.87 434.78 253.79C434.78 253.79 430.23 255.31 430.45 260.08C430.45 260.08 432.2 259.17 433.45 262.85C433.917 264.151 434.534 265.393 435.29 266.55C436.313 268.119 437.819 269.312 439.58 269.95C439.58 269.95 448.65 277.13 465.94 272.23C465.94 272.23 470.77 273.06 471.56 272.48L466.04 268.21C466.04 268.21 463.04 272.38 458.86 272.75C458.86 272.75 466.02 268.52 465.25 267.54C465.09 267.34 462.25 265.41 462.25 265.41C462.25 265.41 457.04 272.64 450.54 273.01C450.54 273.01 459.74 269.11 461.16 264.66L456.66 262C456.66 262 451.53 269.92 444.14 270.62C444.14 270.62 453.62 266.21 455.63 261.49L450.85 259.49C450.85 259.49 445.7 267.11 439.54 267.66C439.54 267.66 449.98 261.45 449.72 259.1C449.72 259.1 445.21 257.52 443.81 257.67C443.81 257.67 439.99 263.06 436.39 263.06C436.39 263.06 442.92 258.17 442.52 257.38C442.52 257.38 436.1 256.88 432.72 258.38C435.766 256.866 439.155 256.177 442.55 256.38C441.203 254.774 439.417 253.596 437.41 252.99C437.41 252.99 440.99 251.63 444.1 256.52C444.1 256.52 449.1 257.11 449.69 257.68C449.69 257.68 447.3 252.42 444.25 250.13C444.25 250.13 448.87 251.06 450.98 258.13L455.83 260.05C455.83 260.05 453.04 252.93 450.47 250.68C450.47 250.68 455.03 252.37 457.02 260.68L461.46 263.24C461.46 263.24 459.53 256.91 457.21 253.8C457.21 253.8 461.1 256.28 462.71 264.02L465.48 266.08C465.48 266.08 463.98 261.49 463.48 260.21C462.98 258.93 463.23 258.67 463.23 258.67C465.132 261.044 466.337 263.901 466.71 266.92C466.71 266.92 472.06 271.5 472.42 271.2Z" fill="#70AD47"/>
<path id="Vector_127" opacity="0.1" d="M856.2 167.58C856.2 167.58 839.65 133.25 818.56 150.17C818.56 150.17 814.02 151.69 814.23 156.46C814.23 156.46 815.99 155.56 817.23 159.23C817.696 160.536 818.317 161.782 819.08 162.94C820.099 164.506 821.602 165.696 823.36 166.33V166.33C823.36 166.33 832.44 173.51 849.72 168.62C849.72 168.62 854.55 169.44 855.35 168.86L849.86 164.58C849.86 164.58 846.86 168.76 842.69 169.13C842.69 169.13 849.84 164.89 849.07 163.91C848.91 163.71 846.07 161.78 846.07 161.78C846.07 161.78 840.87 169.01 834.36 169.38C834.36 169.38 843.57 165.48 844.99 161.04L840.42 158.4C840.42 158.4 835.3 166.31 827.9 167.02C827.9 167.02 837.38 162.6 839.4 157.88L834.61 155.88C834.61 155.88 829.46 163.51 823.31 164.05C823.31 164.05 833.74 157.84 833.48 155.5C833.48 155.5 828.98 153.91 827.58 154.07C827.58 154.07 823.76 159.45 820.15 159.45C820.15 159.45 826.69 154.56 826.29 153.77C826.29 153.77 819.87 153.27 816.48 154.77C819.526 153.256 822.915 152.566 826.31 152.77C824.968 151.163 823.185 149.984 821.18 149.38C821.18 149.38 824.76 148.02 827.87 152.91C827.87 152.91 832.87 153.51 833.46 154.08C833.46 154.08 831.07 148.81 828.01 146.52C828.01 146.52 832.63 147.46 834.74 154.57L839.6 156.49C839.6 156.49 836.81 149.36 834.24 147.11C834.24 147.11 838.8 148.8 840.78 157.11L845.23 159.67C845.23 159.67 843.29 153.35 840.97 150.23C840.97 150.23 844.87 152.71 846.47 160.45L849.24 162.51C849.24 162.51 847.75 157.92 847.24 156.64C846.73 155.36 846.99 155.11 846.99 155.11C848.887 157.486 850.088 160.342 850.46 163.36C850.46 163.36 855.89 167.9 856.2 167.58Z" fill="#70AD47"/>
<path id="Vector_128" opacity="0.1" d="M909.09 337.39C909.09 337.39 892.54 303.05 871.42 319.97C871.42 319.97 866.88 321.49 867.09 326.26C867.09 326.26 868.85 325.36 870.09 329.03C870.553 330.336 871.171 331.581 871.93 332.74C872.949 334.306 874.452 335.496 876.21 336.13C876.21 336.13 885.29 343.32 902.58 338.42C902.58 338.42 907.4 339.25 908.2 338.66L902.68 334.39C902.68 334.39 899.68 338.57 895.5 338.94C895.5 338.94 902.65 334.7 901.88 333.72C901.72 333.52 898.88 331.59 898.88 331.59C898.88 331.59 893.68 338.82 887.17 339.2C887.17 339.2 896.38 335.29 897.8 330.85L893.29 328.19C893.29 328.19 888.17 336.11 880.77 336.81C880.77 336.81 890.25 332.39 892.27 327.67L887.48 325.67C887.48 325.67 882.33 333.29 876.18 333.84C876.18 333.84 886.62 327.63 886.36 325.28C886.36 325.28 881.85 323.69 880.45 323.85C880.45 323.85 876.63 329.23 873.02 329.23C873.02 329.23 879.56 324.34 879.16 323.55C879.16 323.55 872.74 323.05 869.35 324.55C872.399 323.037 875.792 322.347 879.19 322.55C877.846 320.94 876.059 319.761 874.05 319.16C874.05 319.16 877.63 317.79 880.74 322.69C880.74 322.69 885.74 323.28 886.33 323.85C886.33 323.85 883.94 318.59 880.89 316.29C880.89 316.29 885.51 317.23 887.62 324.34L892.47 326.26C892.47 326.26 889.68 319.13 887.11 316.89C887.11 316.89 891.67 318.57 893.65 326.89L898.1 329.44C898.1 329.44 896.16 323.12 893.84 320C893.84 320 897.74 322.48 899.35 330.23L902.12 332.23C902.12 332.23 900.62 327.64 900.12 326.36C899.62 325.08 899.87 324.83 899.87 324.83C901.771 327.204 902.973 330.061 903.34 333.08C903.34 333.08 908.78 337.69 909.09 337.39Z" fill="#70AD47"/>
<path id="Vector_129" opacity="0.1" d="M299.95 784.16C312.647 784.16 322.94 783.009 322.94 781.59C322.94 780.171 312.647 779.02 299.95 779.02C287.253 779.02 276.96 780.171 276.96 781.59C276.96 783.009 287.253 784.16 299.95 784.16Z" fill="#70AD47"/>
<path id="Vector_130" opacity="0.1" d="M149.24 740.48C161.937 740.48 172.23 739.329 172.23 737.91C172.23 736.491 161.937 735.34 149.24 735.34C136.543 735.34 126.25 736.491 126.25 737.91C126.25 739.329 136.543 740.48 149.24 740.48Z" fill="#70AD47"/>
<path id="Vector_131" opacity="0.1" d="M414.83 813.17C427.527 813.17 437.82 812.019 437.82 810.6C437.82 809.181 427.527 808.03 414.83 808.03C402.133 808.03 391.84 809.181 391.84 810.6C391.84 812.019 402.133 813.17 414.83 813.17Z" fill="#70AD47"/>
<path id="Vector_132" opacity="0.1" d="M1003.53 749.98C1016.23 749.98 1026.52 748.829 1026.52 747.41C1026.52 745.991 1016.23 744.84 1003.53 744.84C990.833 744.84 980.54 745.991 980.54 747.41C980.54 748.829 990.833 749.98 1003.53 749.98Z" fill="#70AD47"/>
<path id="Vector_133" opacity="0.1" d="M812.22 737.51C824.917 737.51 835.21 736.359 835.21 734.94C835.21 733.521 824.917 732.37 812.22 732.37C799.523 732.37 789.23 733.521 789.23 734.94C789.23 736.359 799.523 737.51 812.22 737.51Z" fill="#70AD47"/>
<path id="Vector_134" opacity="0.1" d="M688.46 798.33C703.477 798.33 715.65 796.239 715.65 793.66C715.65 791.081 703.477 788.99 688.46 788.99C673.443 788.99 661.27 791.081 661.27 793.66C661.27 796.239 673.443 798.33 688.46 798.33Z" fill="#70AD47"/>
<path id="Vector_135" d="M700.59 746.72C700.59 746.72 662.73 766.28 682.29 789.32C682.29 789.32 684.13 794.32 689.45 793.97C689.45 793.97 688.39 792.03 692.45 790.48C693.895 789.922 695.268 789.193 696.54 788.31C698.259 787.121 699.544 785.405 700.2 783.42V783.42C700.2 783.42 707.94 773.06 701.94 753.89C701.94 753.89 702.72 748.47 702.04 747.59L697.44 753.9C697.44 753.9 702.19 757.09 702.74 761.78C702.74 761.78 697.74 753.91 696.74 754.78C696.52 754.96 694.46 758.23 694.46 758.23C694.46 758.23 702.7 763.82 703.31 771.08C703.31 771.08 698.67 760.91 693.66 759.46L690.79 764.58C690.79 764.58 699.79 770.06 700.79 778.3C700.79 778.3 695.56 767.85 690.22 765.74L688.11 771.15C688.11 771.15 696.79 776.67 697.59 783.53C697.59 783.53 690.33 772.06 687.72 772.42C687.72 772.42 686.08 777.5 686.3 779.07C686.3 779.07 692.43 783.17 692.54 787.2C692.54 787.2 686.88 780.05 686.01 780.52C686.01 780.52 685.65 787.71 687.39 791.45C687.39 791.45 684.39 786.11 684.88 780.52C683.126 782.071 681.864 784.101 681.25 786.36C681.25 786.36 679.62 782.41 684.99 778.77C684.99 778.77 685.5 773.18 686.12 772.49C686.12 772.49 680.31 775.33 677.84 778.81C677.84 778.81 678.75 773.62 686.63 771.04L688.63 765.56C688.63 765.56 680.75 768.9 678.32 771.84C678.32 771.84 680.07 766.69 689.25 764.22L691.97 759.22C691.97 759.22 684.97 761.58 681.55 764.22C681.55 764.22 684.2 759.79 692.81 757.75L695.02 754.6C695.02 754.6 689.94 756.41 688.52 757.06C687.1 757.71 686.82 757.39 686.82 757.39C689.416 755.194 692.569 753.761 695.93 753.25C695.93 753.25 700.94 747.06 700.59 746.72Z" fill="#70AD47"/>
<g id="Person">
<path id="Vector_136" d="M696.172 375.282C689.632 357.512 653.632 355.842 638.012 360.372C626.912 363.602 603.512 367.242 591.012 369.072L590.202 368.302C591.822 367.822 591.862 366.642 591.662 364.892C591.546 362.586 591.579 360.275 591.762 357.972C599.422 360.352 606.242 354.722 606.242 354.722C615.242 350.722 612.822 333.602 614.542 328.922C615.832 325.422 617.222 304.802 617.842 294.522H617.972L618.042 291.072C618.132 289.582 618.172 288.712 618.172 288.712C618.172 288.712 619.052 263.572 620.772 258.482C622.372 253.802 623.672 230.222 623.872 226.482C623.872 226.162 623.872 225.992 623.872 225.992L623.742 223.812C623.832 222.222 623.872 220.452 623.862 218.592C623.862 210.042 622.972 199.272 622.862 197.532C622.862 197.282 622.862 196.982 622.862 196.622C622.932 192.972 622.472 174.692 606.922 167.782C601.192 165.222 594.302 162.172 587.632 159.202C585.912 144.352 581.982 129.582 582.322 114.622C582.322 112.372 582.522 110.122 582.742 107.882C582.742 108.532 582.672 109.192 582.662 109.882C582.662 111.332 582.662 112.792 582.662 114.242C583.252 95.5325 590.322 76.7225 589.662 58.4125C589.602 60.2025 589.472 62.0025 589.302 63.8025C589.648 57.6093 588.999 51.4008 587.382 45.4125C586.782 43.3025 585.972 41.1225 584.242 39.7125C582.607 38.5769 580.732 37.8343 578.762 37.5425C574.03 36.3312 569.223 35.4359 564.372 34.8625C563.635 32.6062 562.541 30.4826 561.132 28.5725C550.992 14.6525 535.972 1.57246 518.212 -1.42754C509.302 -2.92754 499.052 -1.67754 492.992 4.69246C492.359 5.25205 491.765 5.8534 491.212 6.49246C487.952 10.3825 486.552 15.4925 483.212 19.3725C482.992 19.6325 482.742 19.8725 482.502 20.1225C475.962 25.9725 465.772 27.1925 458.502 32.4425C457.221 33.3849 456.021 34.4318 454.912 35.5725C451.983 38.4754 449.356 41.6684 447.072 45.1025C443.802 49.7025 440.442 54.4925 439.402 59.9825C437.312 70.9825 444.802 81.4125 446.192 92.4825C449.292 117.252 421.882 139.232 427.072 163.672C428.457 169.677 431.515 175.165 435.892 179.502C425.202 189.182 416.102 198.572 416.102 198.572V199.132H414.412L414.582 201.132H414.412L415.342 211.982L414.412 227.782C414.412 227.782 414.412 227.952 414.412 228.272V228.352V228.782C414.412 228.782 414.412 228.952 414.412 229.272H414.472C414.782 235.062 416.012 255.882 417.472 260.272C419.192 265.362 420.062 290.502 420.062 290.502C420.062 290.502 421.962 326.032 423.702 330.732C425.442 335.432 422.972 352.502 432.002 356.532C434.644 358.559 437.772 359.855 441.072 360.292C440.612 364.032 440.902 366.742 442.392 367.592C443.03 367.967 443.753 368.174 444.492 368.192C443.88 369.101 443.335 370.054 442.862 371.042C439.278 370.668 435.756 369.838 432.382 368.572C422.682 364.572 390.492 355.572 381.142 361.902C371.792 368.232 349.292 373.972 359.682 399.452C370.072 424.932 374.912 425.572 374.912 425.572C378.11 427.894 380.916 430.713 383.222 433.922C386.342 438.612 415.412 449.342 422.682 449.342C425.772 449.295 428.862 449.449 431.932 449.802C431.932 449.802 424.042 456.722 425.092 460.742C426.142 464.762 422.692 496.942 422.692 496.942C422.692 496.942 430.692 505.002 434.112 494.432L434.232 494.592C434.872 495.462 438.332 499.392 444.842 494.432C447.507 492.411 450.337 490.618 453.302 489.072L484.822 484.612C488.108 484.407 491.403 484.384 494.692 484.542C499.692 484.952 504.602 481.992 507.692 479.702C514.222 482.182 521.562 484.892 525.052 485.882C532.132 487.882 564.672 496.612 572.282 493.882C573.864 493.253 575.271 492.252 576.382 490.962L583.642 491.192L580.242 491.872C580.242 491.872 586.862 491.982 595.862 492.102L595.482 492.322L606.772 492.222C623.292 492.372 641.852 492.422 644.292 491.872C648.112 491.022 667.962 491.622 673.812 491.872H675.442C675.442 491.872 697.252 487.522 688.252 465.392C681.332 448.392 660.062 443.452 650.622 442.092C653.282 441.562 655.572 441.152 657.092 440.912C663.682 439.912 676.482 433.912 677.522 431.862C678.562 429.812 689.292 423.862 692.062 420.472C694.832 417.082 702.742 393.052 696.172 375.282ZM515.522 425.012L514.452 425.362L513.732 425.602L512.352 426.962C511.252 426.222 510.072 425.442 508.842 424.642C511.012 424.772 513.242 424.902 515.522 425.012Z" fill="url(#paint0_linear)"/>
<path id="Vector_137" d="M579.282 319.572C579.282 319.572 594.582 359.572 603.282 355.572C611.982 351.572 609.622 334.572 611.282 329.912C612.942 325.252 614.782 289.912 614.782 289.912C614.782 289.912 615.622 264.912 617.282 259.852C618.822 255.202 620.072 231.752 620.282 228.062C620.282 227.742 620.282 227.572 620.282 227.572L618.632 198.572L609.292 196.242L587.632 204.242L584.632 221.372L583.462 228.062L582.962 230.912L579.282 319.572Z" fill="#BE6F72"/>
<path id="Vector_138" opacity="0.1" d="M584.322 312.872C584.322 312.872 598.922 324.822 603.322 325.872C607.722 326.922 610.422 336.242 610.422 336.242" fill="black"/>
<path id="Vector_139" d="M459.632 321.322C459.632 321.322 444.332 361.322 435.632 357.322C426.932 353.322 429.292 336.322 427.632 331.662C425.972 327.002 424.132 291.662 424.132 291.662C424.132 291.662 423.292 266.662 421.632 261.602C420.092 256.952 418.842 233.502 418.632 229.812C418.632 229.492 418.632 229.322 418.632 229.322L420.292 200.322L429.632 197.992L451.292 205.992L454.292 223.122L455.462 229.812L455.962 232.662L459.632 321.322Z" fill="#BE6F72"/>
<path id="Vector_140" d="M559.262 107.262H525.112V160.492H559.262V107.262Z" fill="#3E373A"/>
<path id="Vector_141" opacity="0.1" d="M559.262 107.262H525.112V160.492H559.262V107.262Z" fill="black"/>
<path id="Vector_142" d="M453.632 361.162C453.632 361.162 441.962 373.992 446.292 376.322C450.622 378.652 478.632 422.322 478.632 422.322C478.632 422.322 570.632 433.652 587.982 416.652C605.332 399.652 604.982 369.282 604.982 369.282C604.982 369.282 591.042 372.282 589.522 370.652C588.002 369.022 579.652 361.162 579.652 361.162C579.652 361.162 461.632 354.002 453.632 361.162Z" fill="#4B4B5B"/>
<path id="Vector_143" opacity="0.02" d="M453.632 361.162C453.632 361.162 441.962 373.992 446.292 376.322C450.622 378.652 478.632 422.322 478.632 422.322C478.632 422.322 570.632 433.652 587.982 416.652C605.332 399.652 604.982 369.282 604.982 369.282C604.982 369.282 591.042 372.282 589.522 370.652C588.002 369.022 579.652 361.162 579.652 361.162C579.652 361.162 461.632 354.002 453.632 361.162Z" fill="black"/>
<path id="Vector_144" d="M619.252 198.993L589.252 222.993L580.182 223.652L576.852 223.893L520.922 227.993L462.922 223.753L454.292 223.122L443.292 222.323L420.292 200.323C420.292 200.323 436.572 182.883 450.832 171.113C456.452 166.463 461.762 162.703 465.632 161.223L466.292 160.993C468.726 160.043 470.9 158.528 472.632 156.573C483.892 144.963 494.302 116.313 494.302 116.313C494.302 116.313 543.972 90.6525 537.972 124.313C531.972 157.973 560.302 149.653 560.302 149.653L569.642 153.913L573.332 155.603L582.742 159.913L603.972 169.653C620.632 177.323 619.252 198.993 619.252 198.993Z" fill="#BE6F72"/>
<path id="Vector_145" opacity="0.1" d="M518.592 143.723C543.263 143.723 563.262 123.723 563.262 99.0525C563.262 74.3819 543.263 54.3825 518.592 54.3825C493.922 54.3825 473.922 74.3819 473.922 99.0525C473.922 123.723 493.922 143.723 518.592 143.723Z" fill="black"/>
<path id="Vector_146" opacity="0.1" d="M619.322 230.812H418.632C418.632 230.492 418.632 230.322 418.632 230.322L420.292 201.322C420.292 201.322 436.572 183.882 450.832 172.112L576.832 167.112L582.692 160.932L603.922 170.673C620.592 178.333 619.252 200.002 619.252 200.002C619.252 200.002 621.532 225.112 619.322 230.812Z" fill="black"/>
<path id="Vector_147" d="M619.322 229.812H418.632C418.632 229.492 418.632 229.322 418.632 229.322L420.292 200.322C420.292 200.322 436.572 182.882 450.832 171.112L576.832 166.112L582.692 159.932L603.922 169.673C620.592 177.333 619.252 199.002 619.252 199.002C619.252 199.002 621.532 224.112 619.322 229.812Z" fill="#E7C7CA"/>
<path id="Vector_148" opacity="0.1" d="M486.422 148.492C486.422 148.492 518.082 188.832 560.252 147.662C602.422 106.492 564.922 239.493 564.922 239.493L473.922 250.292L486.422 148.492Z" fill="black"/>
<path id="Vector_149" d="M486.422 150.492C486.422 150.492 518.082 190.832 560.252 149.662C602.422 108.492 564.922 241.493 564.922 241.493L473.922 252.292L486.422 150.492Z" fill="#E7C7CA"/>
<path id="Vector_150" opacity="0.1" d="M573.282 157.572L576.632 208.662L580.222 225.662L582.962 238.662C582.962 238.662 589.962 338.662 587.962 343.662C585.962 348.662 588.962 352.662 589.382 355.322C589.802 357.982 588.962 364.662 589.292 367.662C589.622 370.662 589.292 371.992 581.632 370.922C573.972 369.852 563.292 367.992 563.292 367.992C563.292 367.992 536.292 369.992 526.962 366.662C517.632 363.332 499.962 363.322 499.962 363.322C499.962 363.322 473.292 363.992 464.632 362.992C455.972 361.992 451.292 373.662 445.632 370.322C439.972 366.982 452.292 334.662 456.292 325.322C460.292 315.982 450.962 292.322 450.962 292.322L462.962 225.752L465.632 210.662V163.222L466.292 162.992C468.726 162.043 470.9 160.528 472.632 158.572L475.632 206.312L569.632 209.652V155.922" fill="black"/>
<path id="Vector_151" d="M573.282 155.572L576.632 206.662L580.222 223.662L582.962 236.662C582.962 236.662 589.962 336.662 587.962 341.662C585.962 346.662 588.962 350.662 589.382 353.322C589.802 355.982 588.962 362.662 589.292 365.662C589.622 368.662 589.292 369.992 581.632 368.922C573.972 367.852 563.292 365.992 563.292 365.992C563.292 365.992 536.292 367.992 526.962 364.662C517.632 361.332 499.962 361.322 499.962 361.322C499.962 361.322 473.292 361.992 464.632 360.992C455.972 359.992 451.292 371.662 445.632 368.322C439.972 364.982 452.292 332.662 456.292 323.322C460.292 313.982 450.962 290.322 450.962 290.322L462.962 223.752L465.632 208.662V161.222L466.292 160.992C468.726 160.043 470.9 158.528 472.632 156.572L475.632 204.312L569.632 207.652V153.922" fill="#E7C7CA"/>
<path id="Vector_152" opacity="0.1" d="M584.092 48.9525C583.522 46.8625 582.732 44.6925 581.092 43.2925C579.526 42.168 577.717 41.428 575.812 41.1325C571.251 39.9331 566.614 39.0444 561.932 38.4725C561.263 36.252 560.251 34.1499 558.932 32.2425C549.132 18.4025 534.632 5.35248 517.572 2.40248C508.642 0.852477 498.292 2.24247 492.572 9.28247C489.432 13.1525 488.082 18.2825 484.912 22.0825C478.802 29.4625 467.772 30.3725 460.072 36.0825C455.962 39.0825 452.982 43.4325 450.072 47.6525C446.922 52.2225 443.682 56.9825 442.682 62.4425C440.682 73.3525 447.892 83.7525 449.222 94.7625C452.222 119.392 425.822 141.242 430.812 165.542C433.722 179.712 446.812 189.692 460.352 194.752C465.122 196.542 470.572 198.322 472.802 202.902C473.802 204.902 473.972 207.212 474.912 209.232C478.072 215.972 488.462 216.232 494.042 211.322C499.622 206.412 501.382 198.472 502.042 191.062C504.722 158.702 491.762 126.732 493.272 94.2925C493.722 84.4825 496.482 73.3525 505.272 68.9125C517.102 62.9125 531.332 72.9125 544.352 71.0025C550.513 85.9939 551.821 102.539 548.092 118.312C546.022 126.942 542.442 135.312 542.182 144.212C541.792 157.762 549.102 170.142 555.422 182.122C556.778 184.363 557.685 186.846 558.092 189.432C558.192 192.057 557.703 194.671 556.662 197.082C553.092 206.692 546.932 215.612 546.232 225.842C546.027 227.037 546.296 228.264 546.982 229.262C547.687 229.929 548.596 230.338 549.562 230.422C560.362 232.272 569.702 222.702 574.972 213.092C580.848 202.478 584.272 190.683 584.992 178.572C586.082 158.212 578.782 138.182 579.232 117.802C579.752 94.6325 590.222 71.3025 584.092 48.9525Z" fill="black"/>
<path id="Vector_153" d="M585.092 47.9525C584.522 45.8625 583.732 43.6925 582.092 42.2925C580.526 41.168 578.717 40.428 576.812 40.1325C572.251 38.9331 567.614 38.0444 562.932 37.4725C562.263 35.252 561.251 33.1499 559.932 31.2425C550.132 17.4025 535.632 4.35248 518.572 1.40248C509.642 -0.147523 499.292 1.24247 493.572 8.28247C490.432 12.1525 489.082 17.2825 485.912 21.0825C479.802 28.4625 468.772 29.3725 461.072 35.0825C456.962 38.0825 453.982 42.4325 451.072 46.6525C447.922 51.2225 444.682 55.9825 443.682 61.4425C441.682 72.3525 448.892 82.7525 450.222 93.7625C453.222 118.392 426.822 140.242 431.812 164.542C434.722 178.712 447.812 188.692 461.352 193.752C466.122 195.542 471.572 197.322 473.802 201.902C474.802 203.902 474.972 206.212 475.912 208.232C479.072 214.972 489.462 215.232 495.042 210.322C500.622 205.412 502.382 197.472 503.042 190.062C505.722 157.702 492.762 125.732 494.272 93.2925C494.722 83.4825 497.482 72.3525 506.272 67.9125C518.102 61.9125 532.332 71.9125 545.352 70.0025C551.513 84.9939 552.821 101.539 549.092 117.312C547.022 125.942 543.442 134.312 543.182 143.212C542.792 156.762 550.102 169.142 556.422 181.122C557.778 183.363 558.685 185.846 559.092 188.432C559.192 191.057 558.703 193.671 557.662 196.082C554.092 205.692 547.932 214.612 547.232 224.842C547.027 226.037 547.296 227.264 547.982 228.262C548.687 228.929 549.596 229.338 550.562 229.422C561.362 231.272 570.702 221.702 575.972 212.092C581.848 201.478 585.272 189.683 585.992 177.572C587.082 157.212 579.782 137.182 580.232 116.802C580.752 93.6325 591.222 70.3025 585.092 47.9525Z" fill="#3E373A"/>
<path id="Vector_154" d="M563.002 490.723L602.672 491.992L596.982 462.572L566.592 465.462L563.002 490.723Z" fill="#C3C7D9"/>
<path id="Vector_155" d="M685.922 420.993C683.252 424.323 672.922 430.322 671.922 432.322C670.922 434.322 658.592 440.322 652.252 441.322C645.912 442.322 625.922 446.663 622.252 448.993C619.622 450.673 598.512 455.992 584.642 458.942C580.885 459.831 577.083 460.516 573.252 460.993C567.252 461.323 501.592 438.993 501.592 438.993L514.252 425.993L514.952 425.752C518.532 424.542 535.072 418.952 544.252 416.292C554.592 413.292 566.592 400.963 566.592 400.963C566.592 400.963 584.252 394.962 586.592 394.292C588.932 393.622 580.592 370.963 580.592 370.963C580.592 370.963 618.922 365.642 633.922 361.132C648.922 356.622 683.592 358.293 689.922 375.963C696.252 393.633 688.632 417.663 685.922 420.993Z" fill="#4B4B5B"/>
<path id="Vector_156" d="M511.252 477.322C511.252 477.322 503.592 485.323 495.922 484.663C488.252 484.003 461.432 486.663 461.432 486.663C456.572 488.601 452.021 491.239 447.922 494.492C441.652 499.432 438.322 495.492 437.702 494.652L437.592 494.492C434.252 505.002 426.592 496.992 426.592 496.992C426.592 496.992 429.922 464.992 428.902 460.992C427.882 456.992 435.492 450.122 435.492 450.122L444.492 447.832L467.292 441.992L499.962 453.322L511.252 477.322Z" fill="#E7C7CA"/>
<path id="Vector_157" opacity="0.1" d="M444.452 447.832L437.702 494.652L437.592 494.492C434.252 505.002 426.592 496.992 426.592 496.992C426.592 496.992 429.922 464.992 428.902 460.992C427.882 456.992 435.492 450.122 435.492 450.122L444.452 447.832Z" fill="black"/>
<path id="Vector_158" opacity="0.1" d="M491.632 314.652C491.632 314.652 509.292 320.652 524.632 314.652Z" fill="black"/>
<path id="Vector_159" opacity="0.1" d="M551.922 325.992C551.922 325.992 559.252 329.652 564.922 325.992Z" fill="black"/>
<path id="Vector_160" opacity="0.1" d="M551.922 334.672C551.922 334.672 564.252 336.322 566.592 332.992Z" fill="black"/>
<path id="Vector_161" opacity="0.1" d="M547.922 353.322C547.922 353.322 571.082 350.322 576.832 346.322Z" fill="black"/>
<path id="Vector_162" opacity="0.1" d="M477.252 346.322C477.252 346.322 490.252 353.652 499.922 353.322Z" fill="black"/>
<path id="Vector_163" opacity="0.1" d="M584.632 458.942C580.875 459.831 577.073 460.516 573.242 460.992C567.242 461.322 501.582 438.992 501.582 438.992L514.242 425.992L514.942 425.752C516.942 427.162 518.582 428.372 519.752 429.292C525.262 433.632 530.582 427.962 532.582 427.962C534.582 427.962 551.912 442.292 551.912 442.292C551.912 442.292 567.912 445.962 570.582 449.292C573.252 452.622 582.582 451.962 584.242 454.292C584.742 455.012 584.802 456.782 584.632 458.942Z" fill="black"/>
<path id="Vector_164" d="M461.432 372.322C461.432 372.322 445.252 373.252 435.922 369.322C426.592 365.392 395.592 356.322 386.592 362.692C377.592 369.062 355.922 374.692 365.922 400.032C375.922 425.372 380.592 426.032 380.592 426.032C383.686 428.353 386.387 431.155 388.592 434.333C391.592 439.003 419.592 449.662 426.592 449.662C433.592 449.662 445.922 449.662 463.252 461.662C480.582 473.662 496.252 475.002 496.252 475.002C496.252 475.002 518.252 484.002 525.102 486.002C531.952 488.002 563.252 496.662 570.592 494.002C577.932 491.342 582.592 474.663 582.592 474.663C582.592 474.663 585.922 459.663 584.252 457.333C582.582 455.003 573.252 455.663 570.592 452.333C567.932 449.003 551.922 445.333 551.922 445.333C551.922 445.333 534.632 430.993 532.632 430.993C530.632 430.993 525.312 436.652 519.802 432.322C508.826 424.193 497.295 416.842 485.292 410.322C472.632 403.652 461.432 372.322 461.432 372.322Z" fill="#4B4B5B"/>
<path id="Vector_165" opacity="0.1" d="M428.902 381.992C431.783 381.404 434.761 381.488 437.604 382.24C440.447 382.991 443.078 384.388 445.292 386.322C453.292 392.992 480.212 406.382 480.212 406.382" fill="black"/>
<path id="Vector_166" opacity="0.1" d="M628.922 381.572C628.922 381.572 593.252 386.972 586.592 394.302Z" fill="black"/>
<path id="Vector_167" d="M669.922 491.992H668.352C662.712 491.792 643.602 491.192 639.922 491.992C635.592 492.992 578.252 491.992 578.252 491.992L589.462 489.663C589.462 489.663 585.302 475.082 587.942 473.872C587.942 473.872 572.942 463.992 584.252 457.322C595.562 450.652 607.752 453.462 607.752 453.462L636.142 443.842L641.592 441.992C641.592 441.992 673.592 443.662 682.252 465.662C690.912 487.662 669.922 491.992 669.922 491.992Z" fill="#E7C7CA"/>
<path id="Vector_168" opacity="0.1" d="M669.922 491.992H668.352C677.662 484.312 698.722 460.932 636.142 443.892L641.592 442.042C641.592 442.042 673.592 443.712 682.252 465.712C690.912 487.712 669.922 491.992 669.922 491.992Z" fill="black"/>
<path id="Vector_169" d="M611.092 466.072C612.059 466.072 612.842 465.289 612.842 464.322C612.842 463.356 612.059 462.572 611.092 462.572C610.126 462.572 609.342 463.356 609.342 464.322C609.342 465.289 610.126 466.072 611.092 466.072Z" fill="#4B4B5B"/>
<path id="Vector_170" d="M600.922 468.962C601.889 468.962 602.672 468.179 602.672 467.212C602.672 466.246 601.889 465.462 600.922 465.462C599.956 465.462 599.172 466.246 599.172 467.212C599.172 468.179 599.956 468.962 600.922 468.962Z" fill="#4B4B5B"/>
<g id="Group" opacity="0.1">
<path id="Vector_171" opacity="0.1" d="M551.372 97.4025C551.76 86.4033 549.803 75.4475 545.632 65.2625C532.632 67.2025 518.392 57.1725 506.552 63.1725C497.792 67.6125 495.042 78.7425 494.552 88.5525C494.432 91.1425 494.412 93.7325 494.462 96.3225C494.462 95.4025 494.462 94.4725 494.552 93.5525C495.012 83.7425 497.762 72.6125 506.552 68.1725C518.392 62.1725 532.612 72.1725 545.632 70.2625C549.165 78.8896 551.109 88.084 551.372 97.4025V97.4025Z" fill="black"/>
<path id="Vector_172" opacity="0.1" d="M450.632 95.5725C450.804 93.3935 450.76 91.203 450.502 89.0325C449.442 80.2325 444.632 71.8225 443.762 63.2425C442.642 73.5925 449.232 83.5325 450.502 94.0325C450.632 94.5725 450.632 95.0525 450.632 95.5725Z" fill="black"/>
<path id="Vector_173" opacity="0.1" d="M503.322 185.313C502.702 192.733 500.952 200.663 495.322 205.583C489.692 210.503 479.322 210.233 476.192 203.493C475.192 201.493 475.042 199.163 474.072 197.163C471.852 192.583 466.392 190.803 461.622 189.013C448.072 183.943 435.002 174.013 432.092 159.803C431.832 158.515 431.655 157.213 431.562 155.903C431.316 158.879 431.495 161.876 432.092 164.803C435.002 178.973 448.092 188.943 461.622 194.013C466.392 195.803 471.852 197.583 474.072 202.163C475.072 204.163 475.242 206.473 476.192 208.493C479.342 215.233 489.732 215.493 495.322 210.583C500.912 205.673 502.652 197.733 503.322 190.313C503.627 186.407 503.73 182.489 503.632 178.573C503.632 180.843 503.502 183.083 503.322 185.313Z" fill="black"/>
<path id="Vector_174" opacity="0.1" d="M580.562 112.063C580.562 113.513 580.562 114.953 580.562 116.393C581.122 97.7925 587.942 79.0925 587.272 60.8825C586.752 77.7225 580.942 94.9425 580.562 112.063Z" fill="black"/>
<path id="Vector_175" opacity="0.1" d="M559.102 187.303C559.348 186.116 559.426 184.901 559.332 183.693C558.929 181.105 558.022 178.621 556.662 176.383C550.882 165.383 544.292 154.123 543.512 141.913C543.512 142.433 543.442 142.913 543.432 143.473C543.032 157.013 550.342 169.403 556.662 181.383C557.736 183.238 558.557 185.229 559.102 187.303V187.303Z" fill="black"/>
<path id="Vector_176" opacity="0.1" d="M586.312 172.833C585.566 184.948 582.118 196.742 576.222 207.353C570.942 216.963 561.612 226.533 550.802 224.683C549.834 224.599 548.923 224.186 548.222 223.513C548.019 223.283 547.86 223.019 547.752 222.733C547.632 223.513 547.532 224.303 547.472 225.103C547.266 226.294 547.535 227.518 548.222 228.513C548.923 229.186 549.834 229.599 550.802 229.683C561.612 231.533 570.942 221.963 576.222 212.353C582.118 201.742 585.566 189.948 586.312 177.833C586.432 175.493 586.442 173.163 586.372 170.833C586.352 171.503 586.352 172.163 586.312 172.833Z" fill="black"/>
</g>
<path id="Vector_177" opacity="0.1" d="M587.942 473.872C587.942 473.872 613.252 484.492 629.942 460.992" stroke="black" stroke-miterlimit="10"/>
<path id="Vector_178" opacity="0.1" d="M592.922 492.432C592.922 492.432 613.592 478.992 639.922 491.992" stroke="black" stroke-miterlimit="10"/>
<path id="Vector_179" opacity="0.1" d="M454.562 489.382C454.562 489.382 463.242 469.802 486.422 484.732" stroke="black" stroke-miterlimit="10"/>
<path id="Vector_180" opacity="0.1" d="M426.422 199.823L444.122 183.823C444.122 183.823 512.752 179.323 515.592 202.653C515.592 202.653 539.922 174.993 591.092 181.153L612.742 198.393L552.902 224.652L494.752 244.823L451.922 225.652L426.422 199.823Z" fill="black"/>
<path id="Vector_181" d="M426.422 200.823L444.122 184.823C444.122 184.823 512.752 180.323 515.592 203.653C515.592 203.653 539.922 175.993 591.092 182.153L612.742 199.393L552.902 225.652L494.752 245.823L451.922 226.652L426.422 200.823Z" fill="#D5D6DB"/>
<path id="Vector_182" opacity="0.1" d="M418.592 202.823L426.422 296.493L509.422 300.663L505.822 207.393L505.752 205.823L418.592 202.823Z" fill="black"/>
<path id="Vector_183" d="M418.592 200.823L426.422 294.493L509.422 298.663L505.822 205.393L505.752 203.823L418.592 200.823Z" fill="#70AD47"/>
<path id="Vector_184" opacity="0.1" d="M616.542 200.823L530.922 213.663V307.753L614.592 295.663L616.542 200.823Z" fill="black"/>
<path id="Vector_185" d="M616.542 198.823L530.922 211.663V305.753L614.592 293.663L616.542 198.823Z" fill="#70AD47"/>
<path id="Vector_186" opacity="0.3" d="M596.352 221.782L550.102 226.922L551.112 242.682L596.322 237.742L596.352 221.782Z" fill="white"/>
<path id="Vector_187" d="M430.922 344.652L435.632 357.322C435.632 357.322 442.632 363.322 450.292 360.322C457.952 357.322 464.632 355.832 467.962 352.912C471.292 349.992 475.962 335.322 475.962 335.322C475.962 335.322 480.632 319.322 485.292 315.322C489.952 311.322 502.292 256.212 485.292 261.602C468.292 266.992 455.292 316.993 455.292 316.993C455.292 316.993 452.292 320.653 447.962 320.993C443.632 321.333 434.962 320.323 433.292 323.993C431.622 327.663 425.922 337.322 430.922 344.652Z" fill="#BE6F72"/>
<path id="Vector_188" opacity="0.1" d="M530.922 213.652C526.539 214.64 521.985 214.589 517.625 213.502C513.264 212.415 509.219 210.323 505.812 207.393L509.422 300.652C509.422 300.652 517.922 309.853 530.922 307.753V213.652Z" fill="black"/>
<path id="Vector_189" d="M530.922 211.652C526.539 212.64 521.985 212.589 517.625 211.502C513.264 210.415 509.219 208.323 505.812 205.393L509.422 298.652C509.422 298.652 517.922 307.853 530.922 305.753V211.652Z" fill="#70AD47"/>
<path id="Vector_190" opacity="0.1" d="M530.922 211.652C526.539 212.64 521.985 212.589 517.625 211.502C513.264 210.415 509.219 208.323 505.812 205.393L509.422 298.652C509.422 298.652 517.922 307.853 530.922 305.753V211.652Z" fill="black"/>
<path id="Vector_191" opacity="0.1" d="M532.922 201.143C532.922 201.143 567.752 190.492 576.832 191.992Z" fill="black"/>
<path id="Vector_192" opacity="0.1" d="M493.962 196.492C493.962 196.492 460.202 188.492 454.562 190.762Z" fill="black"/>
<path id="Vector_193" opacity="0.1" d="M554.882 202.472C554.882 202.472 578.172 193.932 586.592 197.992Z" fill="black"/>
<path id="Vector_194" opacity="0.1" d="M543.152 416.702C546.761 413.992 550.603 411.606 554.632 409.572C560.632 406.682 571.632 399.182 571.632 399.182" fill="black"/>
<path id="Vector_195" opacity="0.1" d="M454.562 314.652C454.562 314.652 439.952 326.602 435.562 327.652C431.172 328.702 428.462 338.022 428.462 338.022" fill="black"/>
<path id="Vector_196" d="M607.952 342.872L603.292 355.572C603.292 355.572 596.292 361.572 588.622 358.572C580.952 355.572 574.292 354.082 570.952 351.162C567.612 348.242 562.952 333.572 562.952 333.572C562.952 333.572 558.292 317.572 553.622 313.572C548.952 309.572 536.622 254.462 553.622 259.852C570.622 265.242 583.622 315.243 583.622 315.243C583.622 315.243 586.622 318.903 590.952 319.243C595.282 319.583 603.952 318.573 605.622 322.243C607.292 325.913 612.952 335.572 607.952 342.872Z" fill="#BE6F72"/>
<path id="Vector_197" opacity="0.1" d="M599.782 319.512C599.782 319.512 609.332 325.652 609.292 332.992Z" fill="black"/>
<path id="Vector_198" d="M518.752 141.533C543.423 141.533 563.422 121.533 563.422 96.8625C563.422 72.1919 543.423 52.1925 518.752 52.1925C494.082 52.1925 474.082 72.1919 474.082 96.8625C474.082 121.533 494.082 141.533 518.752 141.533Z" fill="#BE6F72"/>
<path id="Vector_199" d="M490.702 84.8725C496.122 84.0225 500.872 80.8725 506.052 79.0625C517.642 74.9925 530.462 77.7825 542.192 81.4525C546.692 82.8625 551.262 84.4525 555.982 84.4525C560.702 84.4525 565.712 82.5225 568.122 78.4525C570.342 74.7125 569.912 69.8525 568.042 65.9225C566.172 61.9925 563.042 58.8325 559.882 55.8525C549.482 46.0325 536.582 36.8525 522.312 37.8525C516.572 38.2625 511.082 40.3125 505.802 42.5825C499.154 45.4475 492.682 48.7066 486.422 52.3425C481.612 55.1325 472.702 58.8625 469.932 63.9625C463.632 75.4525 480.902 86.4125 490.702 84.8725Z" fill="#3E373A"/>
<path id="Vector_200" opacity="0.1" d="M568.122 74.2525C565.712 78.3225 560.702 80.2525 555.982 80.2525C551.262 80.2525 546.692 78.7225 542.182 77.3125C530.452 73.6425 517.642 70.8425 506.042 74.9225C500.872 76.7325 496.112 79.9225 490.692 80.7225C482.792 81.9625 470.072 75.0825 468.692 66.3325C467.142 76.4425 481.892 85.1025 490.692 83.7225C496.112 82.8725 500.872 79.7225 506.042 77.9225C517.642 73.8425 530.452 76.6425 542.182 80.3125C546.692 81.7225 551.252 83.3125 555.982 83.2525C560.712 83.1925 565.712 81.3325 568.122 77.2525C569.372 75.0329 569.863 72.4666 569.522 69.9425C569.366 71.4621 568.889 72.9312 568.122 74.2525Z" fill="black"/>
</g>
<g id="Flower Pot">
<path id="Vector_201" d="M863.42 618.21C863.42 618.21 869.35 625.96 860.68 637.67C852.01 649.38 844.87 659.26 847.75 666.56C847.75 666.56 860.83 644.82 871.47 644.51C882.11 644.2 875.11 631.28 863.42 618.21Z" fill="#70AD47"/>
<path id="Vector_202" opacity="0.1" d="M863.42 618.21C863.936 618.959 864.344 619.777 864.63 620.64C875.01 632.84 880.55 644.23 870.56 644.51C861.26 644.78 850.11 661.41 847.44 665.6C847.525 665.939 847.629 666.272 847.75 666.6C847.75 666.6 860.83 644.86 871.47 644.55C882.11 644.24 875.11 631.28 863.42 618.21Z" fill="black"/>
<path id="Vector_203" d="M874.42 628.09C874.42 630.82 874.11 633.03 873.74 633.03C873.37 633.03 873.05 630.82 873.05 628.09C873.05 625.36 873.43 626.65 873.81 626.65C874.19 626.65 874.42 625.36 874.42 628.09Z" fill="#FFD037"/>
<path id="Vector_204" d="M878.21 631.35C875.82 632.65 873.73 633.44 873.55 633.11C873.37 632.78 875.16 631.45 877.55 630.11C879.94 628.77 879 629.75 879.18 630.11C879.36 630.47 880.61 630.04 878.21 631.35Z" fill="#FFD037"/>
<path id="Vector_205" d="M832.08 618.21C832.08 618.21 826.15 625.96 834.82 637.67C843.49 649.38 850.63 659.26 847.74 666.56C847.74 666.56 834.67 644.82 824.02 644.51C813.37 644.2 820.42 631.28 832.08 618.21Z" fill="#70AD47"/>
<path id="Vector_206" opacity="0.1" d="M832.08 618.21C831.564 618.959 831.156 619.777 830.87 620.64C820.49 632.84 814.95 644.23 824.94 644.51C834.23 644.78 845.39 661.41 848.06 665.6C847.976 665.94 847.869 666.274 847.74 666.6C847.74 666.6 834.67 644.86 824.02 644.55C813.37 644.24 820.42 631.28 832.08 618.21Z" fill="black"/>
<path id="Vector_207" d="M821.06 628.09C821.06 630.82 821.36 633.03 821.74 633.03C822.12 633.03 822.43 630.82 822.43 628.09C822.43 625.36 822.04 626.65 821.67 626.65C821.3 626.65 821.06 625.36 821.06 628.09Z" fill="#FFD037"/>
<path id="Vector_208" d="M817.28 631.35C819.67 632.65 821.76 633.44 821.94 633.11C822.12 632.78 820.33 631.45 817.94 630.11C815.55 628.77 816.49 629.75 816.31 630.11C816.13 630.47 814.88 630.04 817.28 631.35Z" fill="#FFD037"/>
<path id="Vector_209" opacity="0.1" d="M847.75 725.88C881.992 725.88 909.75 721.622 909.75 716.37C909.75 711.118 881.992 706.86 847.75 706.86C813.508 706.86 785.75 711.118 785.75 716.37C785.75 721.622 813.508 725.88 847.75 725.88Z" fill="#70AD47"/>
<path id="Vector_210" d="M879.66 656.11L879.36 658.53L878.94 661.95L878.77 663.38L878.35 666.8L878.17 668.23L877.76 671.64L873.01 710.54C872.59 714.01 866.92 716.72 860.07 716.72H835.42C828.57 716.72 822.91 714.01 822.48 710.54L817.73 671.64L817.31 668.23L817.14 666.8L816.72 663.38L816.54 661.95L816.13 658.53L815.83 656.11C815.6 654.11 818.66 652.49 822.54 652.49H872.96C876.83 652.49 879.9 654.14 879.66 656.11Z" fill="#65617D"/>
<path id="Vector_211" d="M879.36 658.53L878.95 661.95H816.55L816.13 658.53H879.36Z" fill="#9D9CB5"/>
<path id="Vector_212" d="M878.77 663.38L878.36 666.8H817.14L816.72 663.38H878.77Z" fill="#9D9CB5"/>
<path id="Vector_213" d="M878.18 668.23L877.76 671.65H817.73L817.32 668.23H878.18Z" fill="#9D9CB5"/>
</g>
</g>
<defs>
<linearGradient id="paint0_linear" x1="527.852" y1="499.912" x2="527.852" y2="-2.00754" gradientUnits="userSpaceOnUse">
<stop stop-color="#808080" stop-opacity="0.25"/>
<stop offset="0.54" stop-color="#808080" stop-opacity="0.12"/>
<stop offset="1" stop-color="#808080" stop-opacity="0.1"/>
</linearGradient>
<clipPath id="clip0">
<rect width="1022.84" height="813.16" fill="white"/>
</clipPath>
</defs>
</svg>
