<svg width="351" height="352" viewBox="0 0 351 352" fill="none" xmlns="http://www.w3.org/2000/svg">
<g id="Infinity Group - Logo No Text" clip-path="url(#clip0)">
<g id="Group">
<g id="Logo">
<g id="Circles">
<path id="CircleBottom" d="M263.395 139.8L224.024 168.949C216.592 203.176 186.976 227.46 153.07 229.211C149.694 229.385 146.277 229.344 142.834 229.059L104.501 257.439L103.474 258.23C108.914 260.576 114.606 262.495 120.493 264.009C123.443 264.769 126.427 265.459 129.481 265.988C192.079 276.825 251.609 234.866 262.447 172.269C264.352 161.264 264.587 150.364 263.395 139.8Z" fill="#055982"/>
<path id="CircleMiddle" d="M73.5435 139.564C80.7565 97.899 120.522 69.871 162.186 77.085C191.621 82.18 214.228 103.529 222.434 130.309L257.724 114.792C244.395 76.656 211.357 46.684 168.727 39.304C106.13 28.466 46.6005 70.426 35.7625 133.023C29.4775 169.326 40.9745 204.576 63.9315 229.916L99.0915 210.743C79.3725 193.711 68.7845 167.054 73.5435 139.564" fill="#055982"/>
<path id="CirleTop" d="M135.965 228.181C94.3001 220.968 66.2721 181.202 73.4861 139.538C78.5811 110.103 99.9301 87.496 126.71 79.29L111.193 44C73.0571 57.329 43.0851 90.367 35.7051 132.997C24.8671 195.594 66.8271 255.124 129.424 265.962C165.727 272.247 200.977 260.75 226.317 237.793L207.144 202.633C190.112 222.352 163.455 232.94 135.965 228.181" fill="#055982"/>
</g>
<path id="Arrow" d="M336.339 81.3716L99.0909 210.744L63.9309 229.916L48.7919 238.172C48.3049 238.437 47.9689 238.914 47.8819 239.461L37.8429 302.985C37.5929 304.564 39.3849 305.651 40.6699 304.7L103.448 258.22L142.835 229.059L224.025 168.95L263.396 139.801L338.258 84.3746C340.044 83.0526 338.291 80.3076 336.339 81.3716" fill="#F05433"/>
<path id="Shadow" d="M142.835 229.059L104.502 257.439L103.475 258.23C108.915 260.576 114.607 262.495 120.493 264.01L153.07 229.211C149.695 229.386 146.278 229.344 142.835 229.059" fill="#003856"/>
</g>
</g>
</g>
<defs>
<clipPath id="clip0">
<rect width="351" height="352" fill="white"/>
</clipPath>
</defs>
</svg>
